<?xml version="1.0" encoding="UTF-8"?>
<svg width="14px" height="14px" viewBox="0 0 14 14" version="1.1" xmlns="http://www.w3.org/2000/svg" xmlns:xlink="http://www.w3.org/1999/xlink">
    <!-- Generator: Sketch 47 (45396) - http://www.bohemiancoding.com/sketch -->
    <title>Shape</title>
    <desc>Created with Sketch.</desc>
    <defs></defs>
    <g id="Templates-模板页面" stroke="none" stroke-width="1" fill="none" fill-rule="evenodd">
        <g id="高级详情页" transform="translate(-712.000000, -472.000000)" fill="#1890FF">
            <g id="Group-7" transform="translate(662.000000, 468.000000)">
                <path d="M57,4 C53.1340123,4 50,7.13401234 50,11 C50,14.8659877 53.1340123,18 57,18 C60.8659877,18 64,14.8659877 64,11 C64,7.13401234 60.8660036,4 57,4 L57,4 Z M60.1433166,10.3279286 C59.8448802,10.966543 59.0778546,12.199274 59.0778546,12.199274 L58.8497098,12.5817352 L59.9299247,12.5817352 L57.8668389,15.325177 L58.335205,13.4588661 L57.4851902,13.4588661 L57.7805198,12.2247331 C57.5415254,12.2823748 57.2591961,12.3615722 56.9246262,12.4691444 C56.9246262,12.4691444 56.4721601,12.7341557 55.6211257,11.9593554 C55.6211257,11.9593554 55.0472108,11.4537565 55.3799804,11.3273528 C55.5215194,11.2736304 56.0670596,11.2054259 56.4963448,11.1474179 C57.0764413,11.0689692 57.4333159,11.0274506 57.4333159,11.0274506 C57.4333159,11.0274506 55.6448483,11.0542322 55.2205817,10.9874297 C54.7962515,10.9207388 54.2579921,10.212725 54.1433621,9.59034524 C54.1433621,9.59034524 53.96604,9.2486378 54.5246444,9.4103944 C55.0832487,9.572151 57.3956847,10.0400551 57.3956847,10.0400551 C57.3956847,10.0400551 54.388331,9.11823517 54.1882263,8.89334044 C53.9880898,8.66842976 53.5992557,7.66546871 53.6498873,7.04922273 C53.6498873,7.04922273 53.6718415,6.89559139 53.8293762,6.93672757 C53.8293762,6.93672757 56.0526732,7.95267313 57.5729112,8.50882397 C59.0931652,9.06497484 60.4148758,9.3479095 60.2441177,10.0680474 C60.22954,10.1294171 60.1936614,10.2193368 60.1433166,10.3279286 Z" id="Shape"></path>
            </g>
        </g>
    </g>
</svg>