<?xml version="1.0" encoding="UTF-8"?>
<svg width="14px" height="14px" viewBox="0 0 14 14" version="1.1" xmlns="http://www.w3.org/2000/svg" xmlns:xlink="http://www.w3.org/1999/xlink">
    <!-- Generator: Sketch 47 (45396) - http://www.bohemiancoding.com/sketch -->
    <title>Shape</title>
    <desc>Created with Sketch.</desc>
    <defs></defs>
    <g id="Templates-模板页面" stroke="none" stroke-width="1" fill="none" fill-rule="evenodd" fill-opacity="0.45">
        <g id="高级详情页" transform="translate(-383.000000, -472.000000)" fill="#000000">
            <path d="M390,472 C386.134012,472 383,475.134012 383,479 C383,482.865988 386.134012,486 390,486 C393.865988,486 397,482.865988 397,479 C397,475.134012 393.866004,472 390,472 L390,472 Z M393.244118,478.068047 C393.22954,478.129417 393.193661,478.219337 393.143317,478.327929 L393.144432,478.327929 L393.138649,478.337998 C392.84488,478.966543 392.077855,480.199274 392.077855,480.199274 C392.077855,480.199274 392.076819,480.19639 392.073856,480.191547 L391.84971,480.581735 L392.929925,480.581735 L390.866839,483.325177 L391.335205,481.458866 L390.48519,481.458866 L390.78052,480.224733 C390.541525,480.282375 390.259196,480.361572 389.924626,480.469144 C389.924626,480.469144 389.47216,480.734156 388.621126,479.959355 C388.621126,479.959355 388.047211,479.453757 388.37998,479.327353 C388.521519,479.27363 389.06706,479.205426 389.496345,479.147418 C390.076441,479.068969 390.433316,479.027451 390.433316,479.027451 C390.433316,479.027451 388.644848,479.054232 388.220582,478.98743 C387.796251,478.920739 387.257992,478.212725 387.143362,477.590345 C387.143362,477.590345 386.96604,477.248638 387.524644,477.410394 C388.083249,477.572151 390.395685,478.040055 390.395685,478.040055 C390.395685,478.040055 387.388331,477.118235 387.188226,476.89334 C386.98809,476.66843 386.599256,475.665469 386.649887,475.049223 C386.649887,475.049223 386.671842,474.895591 386.829376,474.936728 C386.829376,474.936728 389.052673,475.952673 390.572911,476.508824 C392.093165,477.064975 393.414876,477.34791 393.244118,478.068047 L393.244118,478.068047 Z" id="Shape"></path>
        </g>
    </g>
</svg>