<?xml version="1.0" encoding="UTF-8"?>
<svg width="10px" height="6px" viewBox="0 0 10 6" version="1.1" xmlns="http://www.w3.org/2000/svg" xmlns:xlink="http://www.w3.org/1999/xlink">
    <!-- Generator: Sketch 47 (45396) - http://www.bohemiancoding.com/sketch -->
    <title>Combined Shape</title>
    <desc>Created with Sketch.</desc>
    <defs></defs>
    <g id="Templates-模板页面" stroke="none" stroke-width="1" fill="none" fill-rule="evenodd">
        <g id="404" transform="translate(-229.000000, -97.000000)" fill="#FFFFFF">
            <g id="Group-3" transform="translate(0.000000, 1.000000)">
                <g id="Group-52-Copy-9" transform="translate(234.000000, 99.000000) scale(1, -1) translate(-234.000000, -99.000000) translate(228.000000, 93.000000)">
                    <path d="M5.99832471,7.82958351 L1.8004858,3.16741109 C1.62725895,2.97502317 1.33086961,2.95949006 1.13848169,3.13271692 L1.13848169,3.13271692 L1.13848169,3.13271692 C0.946093779,3.30594378 0.930560672,3.60233311 1.10378753,3.79472103 L5.56857611,8.75337111 C5.59401257,8.80387893 5.62908247,8.85060265 5.67363794,8.89072058 C5.76622071,8.97408247 5.88288832,9.01373097 5.99832471,9.01099282 C6.1137611,9.01373097 6.23042871,8.97408247 6.32301148,8.89072058 C6.36756695,8.85060265 6.40263685,8.80387893 6.42807331,8.75337111 L10.8928619,3.79472103 C11.0660887,3.60233311 11.0505556,3.30594378 10.8581677,3.13271692 L10.8581677,3.13271692 L10.8581677,3.13271692 C10.6657798,2.95949006 10.3693905,2.97502317 10.1961636,3.16741109 L5.99832471,7.82958351 Z" id="Combined-Shape"></path>
                </g>
            </g>
        </g>
    </g>
</svg>