<?xml version="1.0" encoding="UTF-8"?>
<svg width="8px" height="6px" viewBox="0 0 8 6" version="1.1" xmlns="http://www.w3.org/2000/svg" xmlns:xlink="http://www.w3.org/1999/xlink">
    <!-- Generator: Sketch 47 (45396) - http://www.bohemiancoding.com/sketch -->
    <title>Shape</title>
    <desc>Created with Sketch.</desc>
    <defs></defs>
    <g id="Templates-模板页面" stroke="none" stroke-width="1" fill="none" fill-rule="evenodd" opacity="0.65">
        <g id="404" transform="translate(-27.000000, -551.000000)" fill-rule="nonzero" fill="#FFFFFF">
            <g id="Group-3" transform="translate(0.000000, 1.000000)">
                <g id="check-circle-o-copy" transform="translate(24.000000, 546.000000)">
                    <path d="M9.86152344,4.178125 L5.38398437,8.66933594 L4.21640625,6.62539063 C4.08105469,6.38886719 3.78164062,6.30683594 3.54511719,6.4421875 C3.30859375,6.57753906 3.2265625,6.87695313 3.36191406,7.11347656 L4.84941406,9.71796875 C4.93964844,9.8765625 5.10644531,9.96679688 5.27734375,9.96679688 C5.36074219,9.96679688 5.44414062,9.94628906 5.52070312,9.90253906 C5.56445312,9.8765625 5.60410156,9.84648438 5.63691406,9.8109375 C5.63828125,9.80957031 5.64101562,9.80683594 5.64238281,9.80546875 L10.5574219,4.87539063 C10.7488281,4.68261719 10.7488281,4.37089844 10.5560547,4.17949219 C10.3646484,3.98535156 10.0542969,3.98535156 9.86152344,4.178125 Z" id="Shape"></path>
                </g>
            </g>
        </g>
    </g>
</svg>