<?xml version="1.0" encoding="UTF-8"?>
<svg width="13px" height="13px" viewBox="0 0 13 13" version="1.1" xmlns="http://www.w3.org/2000/svg" xmlns:xlink="http://www.w3.org/1999/xlink">
    <!-- Generator: Sketch 47 (45396) - http://www.bohemiancoding.com/sketch -->
    <title>Shape</title>
    <desc>Created with Sketch.</desc>
    <defs></defs>
    <g id="Templates-模板页面" stroke="none" stroke-width="1" fill="none" fill-rule="evenodd" opacity="0.65">
        <g id="404" transform="translate(-24.000000, -386.000000)" fill-rule="nonzero" fill="#FFFFFF">
            <g id="Group-3" transform="translate(0.000000, 1.000000)">
                <g id="Group-9-Copy" transform="translate(24.000000, 384.000000)">
                    <path d="M11.7578125,6.890625 C11.4857422,6.890625 11.265625,7.11074219 11.265625,7.3828125 C11.265625,7.40195312 11.2669922,7.41972656 11.2683594,7.4375 L11.265625,7.4375 L11.265625,12.140625 L1.859375,12.140625 L1.859375,2.734375 L7,2.734375 C7.27207031,2.734375 7.4921875,2.51425781 7.4921875,2.2421875 C7.4921875,1.97011719 7.27207031,1.75 7,1.75 L1.859375,1.75 C1.31523437,1.75 0.875,2.19023437 0.875,2.734375 L0.875,12.140625 C0.875,12.6847656 1.31523437,13.125 1.859375,13.125 L11.265625,13.125 C11.8097656,13.125 12.25,12.6847656 12.25,12.140625 L12.25,7.4375 L12.2472656,7.4375 C12.2486328,7.41972656 12.25,7.40195312 12.25,7.3828125 C12.25,7.11074219 12.0298828,6.890625 11.7578125,6.890625 Z" id="Shape"></path>
                </g>
            </g>
        </g>
    </g>
</svg>