<?xml version="1.0" encoding="UTF-8"?>
<svg width="14px" height="14px" viewBox="0 0 14 14" version="1.1" xmlns="http://www.w3.org/2000/svg" xmlns:xlink="http://www.w3.org/1999/xlink">
    <!-- Generator: Sketch 47 (45396) - http://www.bohemiancoding.com/sketch -->
    <title>Shape</title>
    <desc>Created with Sketch.</desc>
    <defs></defs>
    <g id="Templates-模板页面" stroke="none" stroke-width="1" fill="none" fill-rule="evenodd" opacity="0.65">
        <g id="404" transform="translate(-24.000000, -601.000000)" fill-rule="nonzero" fill="#FFFFFF">
            <g id="Group-3" transform="translate(0.000000, 1.000000)">
                <g id="Group-7-Copy" transform="translate(24.000000, 600.000000)">
                    <g id="error" transform="translate(0.218750, 0.861328)">
                        <path d="M13.3710937,10.0652344 L8.06503906,0.758789063 L8.06503906,0.758789063 C7.93378906,0.529101563 7.74375,0.3390625 7.5140625,0.2078125 C7.17089844,0.0123046875 6.77304687,-0.03828125 6.39296875,0.0669921875 C6.01289062,0.170898438 5.69570312,0.416992188 5.50019531,0.76015625 L0.194140625,10.0652344 C0.0669921875,10.2867188 0,10.5396484 0,10.7953125 C0,11.6101563 0.66171875,12.271875 1.4765625,12.271875 L12.0873047,12.271875 C12.3429688,12.271875 12.5958984,12.2048828 12.81875,12.0777344 C13.1619141,11.8822266 13.4080078,11.5650391 13.5119141,11.1849609 C13.6158203,10.8048828 13.5652344,10.4070313 13.3710937,10.0652344 Z M12.5630859,10.9265625 C12.5289063,11.0537109 12.446875,11.1589844 12.3320313,11.2246094 C12.2582031,11.2669922 12.1734375,11.2888672 12.0886719,11.2888672 L1.4765625,11.2888672 C1.20449219,11.2888672 0.984375,11.06875 0.984375,10.7966797 C0.984375,10.7119141 1.00625,10.6271484 1.04863281,10.5533203 L6.3546875,1.24824219 C6.4203125,1.13339844 6.52558594,1.05136719 6.65273438,1.0171875 C6.69648438,1.00488281 6.74023438,0.999414063 6.78398438,0.999414063 C6.86875,0.999414063 6.95214844,1.02128906 7.02734375,1.06367187 C7.10390625,1.10742187 7.16679688,1.1703125 7.21054688,1.246875 L7.21054688,1.246875 L12.5166016,10.5519531 C12.5808594,10.6667969 12.5972656,10.7994141 12.5630859,10.9265625 Z" id="Shape"></path>
                    </g>
                </g>
            </g>
        </g>
    </g>
</svg>