<?xml version="1.0" encoding="UTF-8"?>
<svg width="11px" height="6px" viewBox="0 0 11 6" version="1.1" xmlns="http://www.w3.org/2000/svg" xmlns:xlink="http://www.w3.org/1999/xlink">
    <!-- Generator: Sketch 47 (45396) - http://www.bohemiancoding.com/sketch -->
    <title>down</title>
    <desc>Created with Sketch.</desc>
    <defs></defs>
    <g id="Symbols" stroke="none" stroke-width="1" fill="none" fill-rule="evenodd" fill-opacity="0.65">
        <g id="Drop-down/Button/Secondary/Medium" transform="translate(-81.000000, -13.000000)" fill="#000000">
            <g id="Group" transform="translate(80.000000, 10.000000)">
                <path d="M6.00568919,7.85037842 L1.77804063,3.15509903 C1.60481378,2.96271111 1.30842444,2.947178 1.11603653,3.12040486 L1.11603653,3.12040486 L1.11603653,3.12040486 C0.92364861,3.29363172 0.908115503,3.59002105 1.08134236,3.78240897 L5.63958775,8.84485334 C5.73637884,8.95235074 5.87162192,9.00463312 6.00568919,8.99962368 C6.13975646,9.00463312 6.27499954,8.95235074 6.37179063,8.84485334 L10.930036,3.78240897 C11.1032629,3.59002105 11.0877298,3.29363172 10.8953419,3.12040486 L10.8953419,3.12040486 L10.8953419,3.12040486 C10.7029539,2.947178 10.4065646,2.96271111 10.2333377,3.15509903 L6.00568919,7.85037842 Z" id="down"></path>
            </g>
        </g>
    </g>
</svg>