<?xml version="1.0" encoding="UTF-8"?>
<svg width="10px" height="10px" viewBox="0 0 10 10" version="1.1" xmlns="http://www.w3.org/2000/svg" xmlns:xlink="http://www.w3.org/1999/xlink">
    <!-- Generator: Sketch 47 (45396) - http://www.bohemiancoding.com/sketch -->
    <title>Fill 1 Copy 5</title>
    <desc>Created with Sketch.</desc>
    <defs></defs>
    <g id="Templates-模板页面" stroke="none" stroke-width="1" fill="none" fill-rule="evenodd">
        <g id="标准表格（表格查询）" transform="translate(-1010.000000, -392.000000)" fill="#BFBFBF">
            <g id="Group-31" transform="translate(312.000000, 370.000000)">
                <g id="Group-26" transform="translate(662.000000, 16.000000)">
                    <path d="M40.1842608,15.9852884 L40.184205,15.9852884 C39.8787854,15.9852549 39.5705964,15.7532812 39.5705964,15.2351176 L39.5705964,10.8056515 L36.2388205,7.12700384 C36.1407289,7.01869435 36.0719062,6.90680023 36.0342508,6.79442592 C35.9845685,6.64616063 35.989013,6.49857653 36.0470818,6.36764254 C36.1051506,6.23669738 36.2115505,6.13433995 36.3547906,6.07162564 C36.463357,6.02409855 36.592493,6 36.7386143,6 L45.2613951,6 C45.4075164,6 45.5366525,6.02409855 45.6452076,6.0716368 C45.7884366,6.13433995 45.8948476,6.23669738 45.9529164,6.36764254 C46.0109853,6.49857653 46.0154298,6.64616063 45.9657586,6.79442592 C45.9281032,6.90680023 45.8592805,7.01869435 45.7611889,7.12700384 L42.4293795,10.8056962 L42.4293795,13.4706746 C42.4293795,13.9743657 42.1361432,14.5955009 41.7472832,14.9154823 L40.7068131,15.7717069 C40.5346056,15.9134283 40.3587911,15.9852884 40.1842608,15.9852884 L40.1842608,15.9852884 Z" id="Fill-1-Copy-5"></path>
                </g>
            </g>
        </g>
    </g>
</svg>