<?xml version="1.0" encoding="UTF-8"?>
<svg width="24px" height="24px" viewBox="0 0 24 24" version="1.1" xmlns="http://www.w3.org/2000/svg" xmlns:xlink="http://www.w3.org/1999/xlink">
    <!-- Generator: Sketch 47 (45396) - http://www.bohemiancoding.com/sketch -->
    <title>Shape</title>
    <desc>Created with Sketch.</desc>
    <defs></defs>
    <g id="Templates-模板页面" stroke="none" stroke-width="1" fill="none" fill-rule="evenodd" fill-opacity="0.25">
        <g id="高级详情页" transform="translate(-796.000000, -1418.000000)" fill-rule="nonzero" fill="#000000">
            <g id="Group-18" transform="translate(280.000000, 1318.000000)">
                <g id="Group-36" transform="translate(516.000000, 100.000000)">
                    <g id="Group-16">
                        <g id="frown-o">
                            <path d="M11.7303695,0 C5.25117322,0 0,5.25117322 0,11.7303695 C0,18.2095658 5.25117322,23.460739 11.7303695,23.460739 C18.2095658,23.460739 23.460739,18.2095658 23.460739,11.7303695 C23.460739,5.25117322 18.2095658,0 11.7303695,0 Z M18.8579436,18.8579436 C17.9323442,19.7835431 16.8532418,20.512109 15.6527118,21.0184394 C14.4109422,21.5453896 13.0912757,21.8111558 11.7303695,21.8111558 C10.3694634,21.8111558 9.04979679,21.5453896 7.8080272,21.0207305 C6.6074972,20.512109 5.53068594,19.7858342 4.60279538,18.8602347 C3.67719591,17.9346353 2.94862999,16.8555329 2.44229959,15.6550029 C1.9153494,14.4109422 1.64958321,13.0912757 1.64958321,11.7303695 C1.64958321,10.3694634 1.9153494,9.04979679 2.4400085,7.8080272 C2.94862999,6.6074972 3.67490482,5.53068594 4.60050429,4.60279538 C5.52610376,3.67719591 6.60520611,2.94862999 7.80573612,2.44229959 C9.04979679,1.9153494 10.3694634,1.64958321 11.7303695,1.64958321 C13.0912757,1.64958321 14.4109422,1.9153494 15.6527118,2.4400085 C16.8532418,2.94862999 17.9300531,3.67490482 18.8579436,4.60050429 C19.7835431,5.52610376 20.512109,6.60520611 21.0184394,7.80573612 C21.5453896,9.04979679 21.8111558,10.3694634 21.8111558,11.7303695 C21.8111558,13.0912757 21.5453896,14.4109422 21.0207305,15.6527118 C20.512109,16.8532418 19.7858342,17.9323442 18.8579436,18.8579436 Z" id="Shape"></path>
                        </g>
                    </g>
                </g>
            </g>
        </g>
    </g>
</svg>