<?xml version="1.0" encoding="UTF-8"?>
<svg width="14px" height="14px" viewBox="0 0 14 14" version="1.1" xmlns="http://www.w3.org/2000/svg" xmlns:xlink="http://www.w3.org/1999/xlink">
    <!-- Generator: Sketch 47 (45396) - http://www.bohemiancoding.com/sketch -->
    <title>Shape</title>
    <desc>Created with Sketch.</desc>
    <defs></defs>
    <g id="Templates-模板页面" stroke="none" stroke-width="1" fill="none" fill-rule="evenodd" opacity="0.65">
        <g id="404" transform="translate(-24.000000, -547.000000)" fill-rule="nonzero" fill="#FFFFFF">
            <g id="Group-3" transform="translate(0.000000, 1.000000)">
                <g id="check-circle-o-copy" transform="translate(24.000000, 546.000000)">
                    <path d="M7,0 C3.13359375,0 0,3.13359375 0,7 C0,10.8664062 3.13359375,14 7,14 C10.8664062,14 14,10.8664062 14,7 C14,3.13359375 10.8664062,0 7,0 Z M11.2533203,11.2533203 C10.7009766,11.8056641 10.0570313,12.2404297 9.340625,12.5425781 C8.59960938,12.8570313 7.81210938,13.015625 7,13.015625 C6.18789063,13.015625 5.40039062,12.8570313 4.659375,12.5439453 C3.94296875,12.2404297 3.30039062,11.8070312 2.74667969,11.2546875 C2.19433594,10.7023438 1.75957031,10.0583984 1.45742188,9.34199219 C1.14296875,8.59960938 0.984375,7.81210938 0.984375,7 C0.984375,6.18789063 1.14296875,5.40039062 1.45605469,4.659375 C1.75957031,3.94296875 2.19296875,3.30039062 2.7453125,2.74667969 C3.29765625,2.19433594 3.94160156,1.75957031 4.65800781,1.45742188 C5.40039062,1.14296875 6.18789063,0.984375 7,0.984375 C7.81210938,0.984375 8.59960938,1.14296875 9.340625,1.45605469 C10.0570313,1.75957031 10.6996094,2.19296875 11.2533203,2.7453125 C11.8056641,3.29765625 12.2404297,3.94160156 12.5425781,4.65800781 C12.8570313,5.40039062 13.015625,6.18789063 13.015625,7 C13.015625,7.81210938 12.8570313,8.59960938 12.5439453,9.340625 C12.2404297,10.0570313 11.8070312,10.7009766 11.2533203,11.2533203 Z" id="Shape"></path>
                </g>
            </g>
        </g>
    </g>
</svg>