<?xml version="1.0" encoding="UTF-8"?>
<svg width="10px" height="10px" viewBox="0 0 10 10" version="1.1" xmlns="http://www.w3.org/2000/svg" xmlns:xlink="http://www.w3.org/1999/xlink">
    <!-- Generator: Sketch 47 (45396) - http://www.bohemiancoding.com/sketch -->
    <title>Shape</title>
    <desc>Created with Sketch.</desc>
    <defs></defs>
    <g id="Templates-模板页面" stroke="none" stroke-width="1" fill="none" fill-rule="evenodd" opacity="0.65">
        <g id="404" transform="translate(-28.000000, -385.000000)" fill-rule="nonzero" fill="#FFFFFF">
            <g id="Group-3" transform="translate(0.000000, 1.000000)">
                <g id="Group-9-Copy" transform="translate(24.000000, 384.000000)">
                    <path d="M13.7087891,1.37128906 L12.6246094,0.287109375 C12.2404297,-0.0970703125 11.6142578,-0.0943359375 11.2300781,0.28984375 L5.79960938,5.7203125 C5.75996094,5.75996094 5.72851563,5.8078125 5.70664063,5.85976562 L4.3421875,9.078125 C4.265625,9.25859375 4.31894531,9.44042969 4.43515625,9.55800781 C4.55136719,9.67558594 4.73457031,9.72890625 4.91640625,9.65234375 L8.13613281,8.28925781 C8.18808594,8.26738281 8.23457031,8.2359375 8.27558594,8.19628906 L13.7060547,2.76582031 C14.0902344,2.38164063 14.0929688,1.75546875 13.7087891,1.37128906 Z M7.65351563,7.42382813 L5.775,8.21953125 L6.57070313,6.34101563 L10.3824219,2.52929688 L11.4652344,3.61210937 L7.65351563,7.42382813 Z M13.0087891,2.06855469 L12.1611328,2.91621094 L11.0783203,1.83339844 L11.9259766,0.985742188 L11.9287109,0.983007813 L13.0115234,2.06582031 L13.0087891,2.06855469 Z" id="Shape"></path>
                </g>
            </g>
        </g>
    </g>
</svg>