<?xml version="1.0" encoding="UTF-8"?>
<svg width="24px" height="32px" viewBox="0 0 24 32" version="1.1" xmlns="http://www.w3.org/2000/svg" xmlns:xlink="http://www.w3.org/1999/xlink">
    <!-- Generator: Sketch 47 (45396) - http://www.bohemiancoding.com/sketch -->
    <title>Shape</title>
    <desc>Created with Sketch.</desc>
    <defs>
        <linearGradient x1="121.870767%" y1="50.0000623%" x2="-8.13548721%" y2="50.0000623%" id="linearGradient-1">
            <stop stop-color="#47B4E0" offset="0%"></stop>
            <stop stop-color="#1588E0" offset="17.18%"></stop>
            <stop stop-color="#6EB4E0" offset="100%"></stop>
        </linearGradient>
    </defs>
    <g id="Templates-模板页面" stroke="none" stroke-width="1" fill="none" fill-rule="evenodd">
        <g id="404" transform="translate(-24.000000, -17.000000)" fill-rule="nonzero" fill="url(#linearGradient-1)">
            <g id="Group-11" transform="translate(24.000000, 17.000000)">
                <g id="Group-5">
                    <g id="T1B9hfXcdvXXXXXXXX">
                        <g id="Group">
                            <path d="M16.9951372,0.635294118 L23.0999216,6.74007844 C23.6730981,7.3132549 23.6730981,8.24219607 23.0999216,8.81505882 L23.0999216,8.81505882 C22.5267451,9.3882353 21.5978039,9.3882353 21.0249412,8.81505882 L16.9951372,4.78556863 C16.4219607,4.21239216 15.4930196,4.21239216 14.9201569,4.78556863 L4.78556863,14.9201569 C4.21239216,15.4933333 4.21239216,16.4222745 4.78556863,16.9951372 L14.9201569,27.1297255 C15.4933333,27.7029019 16.4222745,27.7029019 16.9951372,27.1297255 L21.0249412,23.0999216 C21.5981177,22.5267451 22.5270588,22.5267451 23.0999216,23.0999216 L23.0999216,23.0999216 C23.6730981,23.6730981 23.6730981,24.6020393 23.0999216,25.1749019 L16.9951372,31.2796863 C16.4219607,31.8528628 15.4930196,31.8528628 14.9201569,31.2796863 L0.635294118,16.9951372 C0.062117647,16.4219607 0.062117647,15.4930196 0.635294118,14.9201569 L14.9198431,0.635607844 C15.4930196,0.0624313726 16.4222745,0.0624313726 16.9951372,0.635294118 Z" id="Shape"></path>
                        </g>
                    </g>
                </g>
            </g>
        </g>
    </g>
</svg>