<?xml version="1.0" encoding="UTF-8"?>
<svg width="8px" height="12px" viewBox="0 0 8 12" version="1.1" xmlns="http://www.w3.org/2000/svg" xmlns:xlink="http://www.w3.org/1999/xlink">
    <!-- Generator: Sketch 47 (45396) - http://www.bohemiancoding.com/sketch -->
    <title>Shape</title>
    <desc>Created with Sketch.</desc>
    <defs>
        <linearGradient x1="49.9981983%" y1="99.9981453%" x2="49.9981983%" y2="0.00156952896%" id="linearGradient-1">
            <stop stop-color="#F0776F" offset="3.22%"></stop>
            <stop stop-color="#F0656F" offset="50.32%"></stop>
            <stop stop-color="#F0606F" offset="100%"></stop>
        </linearGradient>
    </defs>
    <g id="Templates-模板页面" stroke="none" stroke-width="1" fill="none" fill-rule="evenodd">
        <g id="404" transform="translate(-48.000000, -27.000000)" fill-rule="nonzero" fill="url(#linearGradient-1)">
            <g id="Group-11" transform="translate(24.000000, 17.000000)">
                <g id="Group-5">
                    <g id="T1B9hfXcdvXXXXXXXX">
                        <g id="Group">
                            <path d="M25.1752156,10.8903529 L25.1752156,10.8903529 C25.7483921,10.3171765 26.6773333,10.3171765 27.2501961,10.8903529 L31.28,14.9201569 C31.8531765,15.4933333 31.8531765,16.4222745 31.28,16.9951372 L27.2501961,21.0249412 C26.6770196,21.5981177 25.7480784,21.5981177 25.1752156,21.0249412 L25.1752156,21.0249412 C24.6020393,20.4517647 24.6020393,19.5228235 25.1752156,18.9499607 L27.1297255,16.995451 C27.7029019,16.4222745 27.7029019,15.4933333 27.1297255,14.9204706 L25.1752156,12.9659607 C24.6020393,12.3924706 24.6020393,11.4635294 25.1752156,10.8903529 Z" id="Shape"></path>
                        </g>
                    </g>
                </g>
            </g>
        </g>
    </g>
</svg>