<?xml version="1.0" encoding="UTF-8"?>
<svg width="12px" height="12px" viewBox="0 0 12 12" version="1.1" xmlns="http://www.w3.org/2000/svg" xmlns:xlink="http://www.w3.org/1999/xlink">
    <!-- Generator: Sketch 47 (45396) - http://www.bohemiancoding.com/sketch -->
    <title>Shape</title>
    <desc>Created with Sketch.</desc>
    <defs></defs>
    <g id="Templates-模板页面" stroke="none" stroke-width="1" fill="none" fill-rule="evenodd">
        <g id="提交成功" transform="translate(-774.000000, -590.000000)" fill="#1890FF">
            <g id="Group-7" transform="translate(730.000000, 586.000000)">
                <path d="M50,4 C46.6862963,4 44,6.68629629 44,10 C44,13.3137037 46.6862963,16 50,16 C53.3137037,16 56,13.3137037 56,10 C56,6.68629629 53.3137174,4 50,4 L50,4 Z M52.6942713,9.42393883 C52.4384687,9.97132258 51.7810183,11.0279491 51.7810183,11.0279491 L51.5854655,11.355773 L52.511364,11.355773 L50.7430048,13.7072945 L51.1444614,12.1075995 L50.4158773,12.1075995 L50.669017,11.0497713 C50.4641646,11.0991784 50.2221681,11.1670619 49.9353939,11.2592667 C49.9353939,11.2592667 49.5475658,11.4864192 48.8181077,10.8223047 C48.8181077,10.8223047 48.3261807,10.3889341 48.6114118,10.2805881 C48.7327309,10.2345403 49.2003368,10.1760794 49.5682955,10.1263582 C50.0655211,10.0591164 50.3714136,10.0235291 50.3714136,10.0235291 C50.3714136,10.0235291 48.8384414,10.0464847 48.4747843,9.98922546 C48.1110727,9.93206179 47.6497075,9.32519287 47.5514532,8.79172449 C47.5514532,8.79172449 47.3994629,8.4988324 47.8782666,8.63748091 C48.3570704,8.77612943 50.3391583,9.17719005 50.3391583,9.17719005 C50.3391583,9.17719005 47.7614266,8.38705872 47.5899083,8.1942918 C47.4183627,8.00151123 47.0850764,7.14183032 47.1284749,6.61361948 C47.1284749,6.61361948 47.1472927,6.48193547 47.2823224,6.51719506 C47.2823224,6.51719506 49.1880056,7.38800554 50.4910668,7.86470626 C51.7941416,8.34140701 52.9270364,8.58392243 52.7806723,9.20118352 C52.7681772,9.2537861 52.737424,9.3308601 52.6942713,9.42393883 Z" id="Shape"></path>
            </g>
        </g>
    </g>
</svg>